<?xml version="1.0" encoding="utf-8"?>
<!-- Generator: Adobe Illustrator 24.1.2, SVG Export Plug-In . SVG Version: 6.00 Build 0)  -->
<svg version="1.1" id="Layer_1" xmlns="http://www.w3.org/2000/svg" xmlns:xlink="http://www.w3.org/1999/xlink" x="0px" y="0px"
	 viewBox="0 0 36 24" style="enable-background:new 0 0 36 24;" xml:space="preserve">
<style type="text/css">
	.st0{fill-rule:evenodd;clip-rule:evenodd;fill:#FFFFFF;}
</style>
<path class="st0" d="M0.3,1.6c0-0.6,0.4-1,1-1h33.3c0.6,0,1,0.4,1,1c0,0.6-0.4,1-1,1H1.3C0.8,2.6,0.3,2.1,0.3,1.6z M0.3,12
	c0-0.6,0.4-1,1-1h33.3c0.6,0,1,0.4,1,1c0,0.6-0.4,1-1,1H1.3C0.8,13,0.3,12.6,0.3,12z M1.3,21.4c-0.6,0-1,0.4-1,1c0,0.6,0.4,1,1,1
	h33.3c0.6,0,1-0.4,1-1c0-0.6-0.4-1-1-1H1.3z"/>
</svg>
